<?xml version="1.0" encoding="utf-8"?>
<svg viewBox="0 0 576 512" xmlns="http://www.w3.org/2000/svg">
  <g transform="matrix(1, 0, 0, 1, 1.4210854715202004e-14, 2.842170943040401e-14)">
    <path d="M 528 64 L 48 64 C 21.49 64 0 85.49 0 112 L 0 400 C 0 426.51 21.49 448 48 448 L 528 448 C 554.51 448 576 426.51 576 400 L 576 112 C 576 85.49 554.51 64 528 64 Z M 536 400 C 536 404.411 532.411 408 528 408 L 48 408 C 43.589 408 40 404.411 40 400 L 40 112 C 40 107.589 43.589 104 48 104 L 528 104 C 532.411 104 536 107.589 536 112 L 536 400 Z M 362 270 L 362 242 C 362 235.373 356.627 230 350 230 L 322 230 C 315.373 230 310 235.373 310 242 L 310 270 C 310 276.627 315.373 282 322 282 L 350 282 C 356.627 282 362 276.627 362 270 Z M 458 270 L 458 242 C 458 235.373 452.627 230 446 230 L 418 230 C 411.373 230 406 235.373 406 242 L 406 270 C 406 276.627 411.373 282 418 282 L 446 282 C 452.627 282 458 276.627 458 270 Z M 506 352 L 506 324 C 506 317.373 500.627 312 494 312 L 466 312 C 459.373 312 454 317.373 454 324 L 454 352 C 454 358.627 459.373 364 466 364 L 494 364 C 500.627 364 506 358.627 506 352 Z M 314 188 L 314 160 C 314 153.373 308.627 148 302 148 L 302 200 C 308.627 200 314 194.627 314 188 Z M 410 188 L 410 160 C 410 153.373 404.627 148 398 148 L 370 148 C 363.373 148 358 153.373 358 160 L 358 188 C 358 194.627 363.373 200 370 200 L 398 200 C 404.627 200 410 194.627 410 188 Z M 506 188 L 506 160 C 506 153.373 500.627 148 494 148 L 466 148 C 459.373 148 454 153.373 454 160 L 454 188 C 454 194.627 459.373 200 466 200 L 494 200 C 500.627 200 506 194.627 506 188 Z M 408 346 L 408 330 C 408 323.373 402.627 318 396 318 L 180 318 C 173.373 318 168 323.373 168 330 L 168 346 C 168 352.627 173.373 358 180 358 L 396 358 C 402.627 358 408 352.627 408 346 Z" style=""/>
  </g>
</svg>